<?xml version="1.0" encoding="utf-8"?>
<!-- Designed by Vexels.com - 2020 All Rights Reserved - https://vexels.com/terms-and-conditions/  -->
<svg version="1.1" id="Capa_1" xmlns="http://www.w3.org/2000/svg" xmlns:xlink="http://www.w3.org/1999/xlink" x="0px" y="0px"
	 viewBox="0 0 1200 1200" enable-background="new 0 0 1200 1200" xml:space="preserve">
<path fill="#2D2B2A" d="M1147.469,592.509c-3.398-5.069-7.647-9.229-12.484-12.888c-11.58-8.761-24.53-14.875-37.988-20.113
	c-27.396-10.661-56.073-15.966-84.945-20.378c-10.391-1.588-20.891-2.532-31.367-3.486c-12.405-1.13-24.825-2.172-37.261-2.857
	c-16.086-0.885-32.196-1.334-48.293-2.051c-35.73-1.592-71.281,0.503-106.719,5.039c-12.565,1.608-25.123,3.283-37.705,4.743
	c-9.811,1.138-19.67,1.855-29.48,3c-16.293,1.903-32.605,1.961-48.884,0.312c-17.749-1.798-35.23-5.29-52.41-10.076
	c-11.38-3.17-22.461-7.135-32.328-13.991c-19.96-13.87-39.519-28.208-56.155-46.105c-5.265-5.663-10.571-11.304-15.511-17.244
	c-3.184-3.828-6.811-5.228-11.75-5.203c-54.569,0.285-109.138,0.387-163.707,0.596c-1.878,0.007-4.046,0.145-5.562,1.069
	c-2.284,1.392-4.466,1.321-6.782,0.845c-19.656-4.042-39.519-5.448-59.566-5.181c-9.44,0.126-18.898-0.319-28.334-0.786
	c-12.657-0.626-25.296-1.596-37.951-2.286c-15.46-0.843-30.922-0.786-46.363,0.72c-16.749,0.346-33.499,0.688-50.249,1.039
	c-5.798,0.122-11.6,0.159-17.391,0.431c-5.625,0.264-11.012,1.692-16.174,3.953c-6.015,2.634-9.407,6.8-9.739,13.766
	c-0.441,9.264-2.48,18.147-7.437,26.345c-4.619,7.639-4.955,15.972-0.692,23.989c1.939,3.646,1.934,6.839-0.046,10.279
	c-4.27,7.424-4.61,15.439-3.804,23.734c1.307,13.452,2.915,26.869,3.956,40.357c0.767,9.943-0.031,19.746-0.636,29.569
	c-0.632,10.271-2.11,20.491-3.301,30.724c-0.963,8.287-0.453,16.323,3.848,23.717c2.042,3.509,1.838,6.717-0.103,10.27
	c-3.37,6.171-3.491,12.756-1.327,19.36c0.663,2.023,1.551,4.036,2.692,5.826c3.669,5.756,5.419,12.097,6.173,18.785
	c0.288,2.557,0.682,5.11,0.806,7.676c0.242,4.978,2.676,8.593,6.922,10.861c2.815,1.503,5.838,2.734,8.902,3.63
	c6.219,1.817,12.663,2.281,19.114,2.364c6.444,0.083,12.895-0.187,19.333,0.013c18.464,0.572,36.925,1.247,55.383,1.989
	c14.84,0.597,29.656-0.161,44.433-1.135c17.152-1.131,34.28-2.553,51.484-2.211c19.832,0.395,39.47-1.351,58.949-5.005
	c2.956-0.555,5.674-1.161,8.551,0.885c1.344,0.956,3.725,0.567,5.638,0.594c13.748,0.195,27.496,0.377,41.245,0.488
	c11.171,0.091,22.342,0.121,33.513,0.1c10.957-0.02,21.913-0.234,32.869-0.193c18.476,0.069,36.953,0.205,55.427,0.468
	c4.63,0.066,8.275-1.251,11.281-4.909c3.679-4.476,7.692-8.678,11.572-12.988c19.413-21.569,42.216-39.002,66.622-54.462
	c4.545-2.879,9.506-4.865,14.604-6.636c12.809-4.449,25.984-7.292,39.25-9.954c13.948-2.799,27.982-4.337,42.175-4.861
	c16.818-0.621,33.478,1.416,50.126,3.116c21.141,2.16,42.204,5.083,63.305,7.641c15.146,1.836,30.342,3.168,45.597,3.46
	c12.885,0.247,25.787,0.395,38.668,0.053c27.914-0.743,55.824-1.728,83.658-4.136c9.414-0.814,18.844-1.528,28.224-2.642
	c23.256-2.762,46.293-6.878,68.937-12.846c21.645-5.705,42.627-13.22,61.516-25.62c6.856-4.501,13.095-9.671,17.688-16.629
	C1150.826,602.393,1150.854,597.56,1147.469,592.509z M333.148,596.111c0.534,6.584,0.226,12.951,0.136,19.723
	c-1.301,0.234-2.48,0.569-3.675,0.643c-18.654,1.147-37.304,2.349-55.964,3.358c-19.95,1.078-39.907,2.018-59.865,2.924
	c-17.597,0.798-35.201,1.443-52.8,2.216c-2.713,0.119-5.412,0.56-8.052,1.478c19.451,0,38.91,0.393,58.348-0.096
	c26.198-0.659,52.378-1.996,78.566-3.045c13.308-0.533,26.616-1.08,39.925-1.589c1.029-0.039,2.068,0.167,3.23,0.27v5.388
	c-8.013,1.332-16.098,0.288-23.604,3.189c-0.114,0.044-0.11,0.397-0.21,0.812c7.726,1.485,15.649,0.438,23.59,1.537
	c0.806,3.443,0.395,6.612,0.296,9.751c-1.946,1.968-4.454,1.545-6.729,1.778c-6.195,0.635-12.404,1.12-18.606,1.686
	c-1.06,0.097-2.111,0.297-3.213,0.456c0.394,1.638,1.712,1.272,2.578,1.293c6.223,0.151,12.448,0.186,18.673,0.244
	c2.118,0.02,4.236,0.003,6.59,0.003c1.464,4.18,0.566,8.405,0.491,12.914c-29.926,3.231-59.799,5.783-89.493,9.927
	c29.647-0.406,59.122-3.527,88.87-5.396c1.382,3.443,0.614,6.887,0.657,10.236c0.043,3.388,0.163,6.806-0.36,10.582
	c-47.406,1.321-94.477-0.208-141.572-1.212c9.211,1.75,18.483,2.831,27.824,3.457c25.732,1.725,51.495,2.454,77.278,2.775
	c11.598,0.144,23.193,0.575,34.788,0.897c0.392,0.011,0.778,0.251,1.634,0.544c0.532,2.707,0.272,5.623,0.008,8.719
	c-3.184,1.778-6.73,0.944-10.018,1.567c-3.057,0.579-6.148,0.973-10.386,1.629c2.637,1.31,4.349,0.975,5.947,1.101
	c1.496,0.117,3.006,0.071,4.509,0.046c1.718-0.029,3.435-0.133,5.153-0.168c1.445-0.029,2.891-0.006,4.745-0.006
	c0.395,4.925,0.067,9.597-0.032,14.646c-1.238,0.213-2.423,0.565-3.617,0.6c-30.707,0.917-61.415,1.788-92.122,2.706
	c-3.427,0.102-6.847,0.436-11.459,0.742c5.623,0.617,10.086,1.185,14.635,1.194c28.789,0.057,57.578,0.168,86.367,0.274
	c1.895,0.007,3.79,0.119,5.968,0.192v5.473c-0.368,0.196-0.88,0.64-1.454,0.746c-4.808,0.893-9.627,1.725-14.238,2.539
	c-0.173,0.686-0.224,0.886-0.274,1.086c0.211,0.042,0.421,0.121,0.632,0.121c4.923,0.007,9.847,0.005,14.658,0.005
	c1.393,1.76,1.16,3.352,0.475,5.344c-7.405,1.414-14.959,2.972-22.618,3.517c-8.127,0.578-16.303,0.638-24.458,0.651
	c-14.178,0.022-28.359-0.379-42.533-0.192c-9.443,0.125-18.871,1.107-28.315,1.448c-12.879,0.466-25.766,0.827-38.652,0.953
	c-6.217,0.061-12.442-0.496-18.662-0.813c-15.679-0.798-31.355-0.748-47.023,0.223c-8.377,0.519-16.731,0.81-25.069-0.569
	c-4.505-0.745-8.722-2.214-12.658-4.492c-0.472-0.273-0.752-0.878-1.101-1.305c1.014-1.424,2.388-1.056,3.546-1.135
	c9.43-0.64,18.86-1.286,28.298-1.783c11.798-0.622,23.608-1.021,35.406-1.666c16.301-0.892,32.595-1.893,48.888-2.928
	c2.544-0.162,5.06-0.752,7.573-1.351c-17.359-0.678-34.697-0.145-52.033,0.267c-19.545,0.465-39.088,1.004-58.631,1.564
	c-3,0.086-5.994,0.441-8.988,0.698c-2.338,0.201-4.674,0.442-7.345,0.697c-0.381-4.124-0.562-7.935-1.129-11.688
	c-0.569-3.764-1.521-7.47-2.325-11.294c19.485-2.532,38.957-1.686,57.881-6.032c0.141-0.032,0.214-0.356,0.542-0.939
	c-20.554-0.408-40.859,0.667-61.412,1.442c-2.549-2.459-3.596-5.522-3.837-9.481c2.557-0.486,4.918-0.934,8.108-1.541
	c-3.221-0.774-5.64-1.355-8.104-1.947c-0.082-4.617,2.242-8.015,3.685-11.853c7.735-0.274,15.213-0.51,22.687-0.809
	c12.877-0.516,25.765-0.876,38.624-1.686c7.056-0.445,14.062-1.668,21.085-2.583c0.32-0.041,0.583-0.51,1.285-1.164
	c-28.252-0.319-56.093-0.672-84.02-0.035c-1.758-4.003-4.437-7.491-4.379-12.253c12.089-2.248,24.287-3.046,36.552-6.227
	c-2.716-1.271-5.096-0.598-7.403-0.526c-2.358,0.074-4.708,0.387-7.063,0.575c-2.57,0.204-5.146,0.336-7.711,0.588
	c-2.35,0.232-4.682,0.647-7.032,0.864c-2.519,0.233-5.051,0.329-7.977,0.509c-0.076-6.71,1.903-12.657,2.469-18.77
	c0.554-5.973,1.781-11.883,2.679-17.826c0.926-6.132,1.813-12.27,2.784-18.859c1.031-0.124,2.234-0.392,3.437-0.392
	c6.66,0.001,13.331-0.154,19.978,0.16c12.011,0.568,24.009,1.392,36.008,2.177c14.538,0.951,29.071,1.972,44.421,3.019
	c-2.704-1.872-4.97-2.201-7.277-2.551c-19.331-2.926-38.771-4.871-58.235-6.613c-4.92-0.44-9.821-1.138-14.747-1.445
	c-6.424-0.401-12.864-0.539-19.298-0.771c-1.269-0.046-2.541-0.006-4.26-0.006c-0.148-1.053-0.282-2.004-0.433-3.083
	c4.543-1.885,9.466-0.301,13.744-1.882c0.061-0.571,0.172-0.841,0.082-0.983c-0.089-0.139-0.378-0.186-0.586-0.21
	c-1.492-0.168-2.983-0.377-4.48-0.463c-2.777-0.159-5.558-0.243-8.542-0.367c-2.113-4.152-1.603-8.797-2.576-13.118
	c-0.937-4.162-1.331-8.447-2.009-12.98c5.802-1.015,11.345-0.437,16.836-0.686c5.579-0.253,11.168-0.257,16.753-0.373
	c5.37-0.111,10.74-0.229,16.111-0.337c5.584-0.112,11.17-0.211,16.755-0.323c5.514-0.11,11.027-0.228,16.548-0.634
	c-13.787-2.333-27.707-2.253-41.608-2.349c-13.745-0.095-27.491-0.021-41.496-0.021c-1.42-2.642-1.103-5.664-1.873-8.752
	c4.216-1.753,8.719-0.185,13.36-2.06c-4.918-0.713-9.143-1.325-13.3-1.927c-2.68-6.842-2.048-10.507,3.98-22.85
	c36.89-2.22,74.058-2.315,111.173-5.24c-1.205-0.21-2.404-0.541-3.617-0.608c-5.576-0.307-11.154-0.747-16.734-0.765
	c-25.567-0.082-51.134-0.063-76.7-0.015c-4.49,0.009-8.98,0.33-13.4,0.504c-5.124-7.74-5.786-12.233-2.827-20.291
	c21.015,0.14,42.203,0.407,63.349-1.498c-9.901-1.962-19.96-1.859-29.98-2.237c-10.053-0.379-20.107-0.729-30.13-1.091
	c-0.054-2.004,1.078-2.536,2.445-2.657c4.279-0.379,8.563-0.705,12.848-1.02c2.343-0.172,4.691-0.28,7.045-1.075
	c-6.433-0.394-12.865-0.788-19.694-1.206c-0.138-2.642,0.976-4.683,1.405-7.248c4.249-0.239,8.225-0.463,12.615-0.711
	c-1.982-2.068-4.157-1.201-6.016-1.628c-1.83-0.42-3.706-0.638-5.829-0.989c0.149-1.98,0.273-3.621,0.396-5.257
	c0.904-0.294,1.49-0.663,2.065-0.645c31.133,0.968,62.264,1.969,93.396,2.962c1.007,0.032,2.017,0.004,4.422,0.004
	c-7.43-2.581-13.862-2.848-20.163-3.345c-20.556-1.622-41.137-2.933-61.716-4.237c-4.922-0.312-9.876-0.123-14.814-0.197
	c-1.036-0.016-2.07-0.174-3.483-0.3c0.385-1.509,0.324-3.05,1.065-3.805c1.627-1.657,3.51-3.196,5.555-4.283
	c4.987-2.654,10.404-4.115,16.055-4.207c7.514-0.122,15.045-0.212,22.546,0.144c16.543,0.786,33.059,0.79,49.597-0.219
	c20.62-1.258,41.22-0.188,61.818,0.959c17.588,0.979,35.183,1.936,52.814,0.81c12.462-0.796,24.921-0.499,37.318,1.014
	c5.955,0.727,11.856,1.905,18.106,2.932c1.378,2.842,0.541,6.027,0.614,9.539c-1.296,0.173-2.488,0.461-3.682,0.471
	c-6.444,0.055-12.892-0.084-19.332,0.099c-3.601,0.102-7.189,0.697-10.763,1.422c10.974,2.611,22.25,1.802,33.476,3.236
	c0.507,2.86,0.511,5.36,0.023,8.245c-6.638,0.642-13.213,1.281-19.789,1.912c-6.565,0.629-13.035,1.732-19.35,3.853
	c12.977,0.494,25.9-1.481,39.183-0.772c0.705,2.912,0.396,5.686,0.467,8.413c0.066,2.552,0.014,5.108,0.014,7.889
	c-2.984,1.396-6.025,1.003-8.928,1.271c-3.206,0.296-6.444,0.262-9.649,0.564c-2.97,0.28-5.917,0.813-9.327,1.298
	c2.357,1.678,4.627,1.083,6.707,1.376c2.335,0.329,4.706,0.439,7.066,0.547c2.145,0.098,4.295,0.077,6.444,0.089
	c2.329,0.013,4.658,0.003,7.294,0.003c0.907,4.382,0.505,8.559,0.472,13.123c-27.66,2.574-54.986,4.78-83.302,8.631
	c7.162,0.754,13.131,0.233,19.111-0.157c9.86-0.643,19.728-1.155,29.594-1.708c10.079-0.565,20.159-1.118,30.24-1.657
	c1.25-0.067,2.507-0.009,3.673-0.009c1.122,4.788,1.421,14.662,0.802,25.488c-1.311,0.302-2.706,0.773-4.136,0.927
	c-6.832,0.735-13.679,1.335-20.51,2.089c-2.769,0.306-5.512,0.863-8.256,1.366c-0.341,0.062-0.614,0.495-1.391,1.161
	c5.988,0.145,11.52,0.331,17.054,0.398c5.553,0.067,11.106,0.015,16.656,0.015c1.202,4.403,1.402,15.262,0.342,21.734
	c-44.166,2.249-88.477,2.241-132.719,4.215c44.231,0.775,88.472-0.195,133.15,1.096c0.136,2.298,0.257,4.342,0.398,6.736
	c-1.741,0.185-3.174,0.419-4.614,0.478c-10.728,0.438-21.459,0.828-32.188,1.272c-1.158,0.048-2.305,0.345-3.445,0.85
	C306.288,596.656,319.594,595.254,333.148,596.111z M343.794,731.628c-0.002,2.786-0.057,5.582-0.322,8.351
	c-0.132,1.375-1.334,1.396-2.775,0.932c-0.122-1.308-0.365-2.753-0.375-4.2c-0.301-43.563-0.78-87.125-0.8-130.688
	c-0.018-39.486,0.476-78.972,0.729-118.458c0.052-8.155,0.017-16.31,0.078-24.464c0.009-1.258,0.266-2.526,0.54-3.761
	c0.053-0.239,0.727-0.478,1.107-0.466c0.383,0.012,1.004,0.26,1.089,0.536c0.308,1.006,0.577,2.063,0.606,3.108
	c0.125,4.504,0.221,9.011,0.22,13.517C343.871,561.234,343.839,646.431,343.794,731.628z M370.281,646.447
	c-0.227,31.347-0.857,62.69-1.311,94.072c-3.13,1.444-6.069,0.609-9.256,0.765c-1.483-6.911-0.447-13.823-2.188-20.076
	c-0.168,2.999-0.395,6.316-0.527,9.637c-0.134,3.396,0.002,6.811-0.472,10.344h-4.922c-1.253-2.221-0.78-4.63-0.799-6.905
	c-0.127-15.462-0.198-30.925-0.2-46.388c-0.01-67.866,0.004-135.733,0.024-203.599c0.002-6.657,0.082-13.315,0.181-19.972
	c0.025-1.69,0.264-3.378,0.433-5.414h5.095c2.195,10.316,1.51,20.759,4.577,30.622c0.032,0.102,0.397,0.101,0.925,0.22
	c-0.223-10.094-0.445-20.111-0.665-30.04c2.376-1.77,4.69-0.634,7.328-0.907c1.552,31.627,1.464,62.933,1.759,94.222
	C370.554,584.166,370.506,615.309,370.281,646.447z M441.653,729.732c-0.032,3.64-0.292,7.277-0.464,11.296h-5.283
	c-0.227-5.026-0.447-9.887-0.699-15.472c-2.408,2.561-1.987,5.228-2.32,7.641c-0.351,2.543-0.604,5.099-0.901,7.665
	c-2.745,0.864-5.233,0.477-8.144,0.342c-0.134-1.522-0.338-2.745-0.335-3.967c0.019-7.731,0.098-15.462,0.128-23.193
	c0.024-6.008-0.576-11.968-1.408-17.934c-2.411,7.269-2.036,14.793-2.373,22.24c-0.337,7.452-0.619,14.907-0.934,22.559
	c-1.126,0.141-1.944,0.327-2.763,0.333c-4.275,0.03-8.55,0.014-13.082,0.014c-0.313-1.605-0.764-2.811-0.746-4.01
	c0.092-6.223,0.205-12.448,0.492-18.665c0.556-12.01,1.447-24.008,1.818-36.022c0.922-29.835,1.795-59.673,2.358-89.516
	c0.311-16.525-0.039-33.063-0.101-49.594c-0.002-0.422-0.117-0.843-0.179-1.264c-0.122,0.03-0.243,0.06-0.366,0.09
	c-1.033,24.234-2.014,48.471-3.114,72.702c-1.081,23.808-2.37,47.607-3.401,71.416c-0.715,16.517-1.152,33.046-1.701,49.569
	c-0.049,1.464-0.006,2.931-0.006,4.707c-2.832,0.66-5.295,0.601-8.081,0.1c-0.222-1.258-0.637-2.483-0.618-3.702
	c0.074-4.935,0.19-9.874,0.454-14.802c1.389-25.946,2.884-51.888,2.786-77.885c-0.014-3.97-0.379-7.938-1.004-11.918
	c-1.129,3.888-0.99,7.876-1.214,11.826c-0.232,4.073-0.492,8.144-0.727,12.217c-0.224,3.858-0.41,7.719-0.652,11.576
	c-0.254,4.071-0.592,8.138-0.824,12.21c-0.232,4.073-0.339,8.154-0.574,12.227c-0.235,4.072-0.598,8.138-0.838,12.21
	c-0.228,3.859-0.344,7.724-0.558,11.583c-0.225,4.073-0.581,8.14-0.747,12.215c-0.163,4.021-0.158,8.049-0.231,12.373h-8.459
	c-1.646-8.182-2.658-61.239-2.695-140.83c-0.026-55.395,0.995-119.815,2.252-140.805c6.495-0.707,13.053-0.163,19.957-0.2
	c2.553,9.192,1.756,18.815,5.11,28.725c1.122-9.997-0.86-18.941-0.569-27.86c4.251-1.232,9.965-1.389,16.897-0.426
	c0.939,5.941,0.708,12.146,1.88,18.194c0.201-6.076,0.403-12.151,0.601-18.128c5.121-1.161,12.836-1.415,20.335-0.683
	c0.233,1.087,0.645,2.28,0.72,3.494c0.197,3.212,0.34,6.434,0.343,9.652c0.059,74.733,0.104,149.466,0.132,224.199
	C441.81,707.399,441.753,718.566,441.653,729.732z M473.91,733.593c-0.003,2.341,0,4.683,0,7.445
	c-1.522,0.151-2.703,0.268-3.771,0.374c-0.381-0.495-0.838-0.812-0.847-1.142c-0.125-4.073-0.147-8.15-0.283-12.223
	c-0.043-1.273-0.303-2.548-0.567-3.8c-0.072-0.345-0.517-0.611-0.989-1.132c-1.114,0.979-0.785,2.262-0.922,3.338
	c-0.162,1.275-0.168,2.569-0.23,3.856c-0.05,1.072-0.08,2.145-0.124,3.218c-0.053,1.287-0.053,2.58-0.184,3.859
	c-0.128,1.238-0.393,2.462-0.614,3.796h-7.395v-48.114c1.134,0.306,2.259,0.67,3.411,0.906c2.075,0.425,3.837-0.108,5.05-1.944
	c1.075-1.627,1.07-3.936-0.098-5.446c-1.307-1.69-3.079-2.323-5.146-1.708c-0.986,0.293-1.894,0.85-3.32,1.511
	c-0.406-3.489-0.165-6.621-0.219-9.73c-0.054-3.22-0.031-6.441-0.058-9.661c-0.028-3.435-0.075-6.87-0.115-10.305
	c-0.038-3.22-0.052-6.441-0.125-9.66c-0.074-3.209-0.208-6.416-0.921-9.656c-0.127,1.438-0.337,2.875-0.367,4.315
	c-0.37,17.598-0.726,35.196-1.058,52.795c-0.283,15.021-0.53,30.043-0.812,45.065c-0.007,0.393-0.227,0.782-0.471,1.567
	c-1.277,0.063-2.694,0.132-4.378,0.215c-0.231-1.446-0.583-2.673-0.599-3.904c-0.13-9.874-0.199-19.749-0.282-29.624
	c-0.625-74.069-0.641-148.138,0.07-222.206c0.072-7.513,0.083-15.027,0.192-22.54c0.017-1.255,0.268-2.546,0.664-3.736
	c0.13-0.394,1.058-0.722,1.618-0.717c0.556,0.005,1.432,0.339,1.598,0.755c0.381,0.961,0.515,2.054,0.576,3.103
	c0.474,8.143,0.845,16.292,1.37,24.431c0.511,7.92,1.165,15.83,1.765,23.854c1.298,1.41,2.069,2.463,3.046,3.264
	c2.098,1.721,4.685,1.64,6.423-0.047c1.402-1.361,1.814-3.537,1.009-5.327c-1.053-2.341-3.279-3.409-5.818-2.631
	c-0.974,0.298-1.843,0.935-2.625,1.345c-0.398-0.167-0.638-0.195-0.734-0.327c-0.115-0.159-0.147-0.407-0.15-0.617
	c-0.181-15.64-0.357-31.28-0.536-47.256c1.686-1.249,3.708-0.894,6.001-0.266c1.837,4.811-0.032,10.29,2.858,15.569
	c0.97-5.438,0.378-10.394,0.874-15.424c2.195-0.958,4.22-0.806,6.482-0.218c1.245,2.399,0.709,5.011,0.712,7.488
	c0.021,17.39-0.132,34.78-0.1,52.171c0.064,34.351,0.283,68.701,0.304,103.052C474.101,658.881,473.973,696.237,473.91,733.593z
	 M933.139,615.034c8.365,0.467,16.737,0.798,25.106,1.183c1.685,0.077,3.37,0.166,5.444,0.269c0.464,2.781,0.144,5.296-0.065,7.792
	c-0.195,2.337-0.504,4.665-0.807,7.401c-56.115,1.569-112.006-0.914-167.91-4.676c1.764,0.328,3.53,0.654,5.293,0.985
	c2.105,0.396,4.193,0.933,6.315,1.174c22.196,2.523,44.447,4.384,66.758,5.578c16.085,0.861,32.154,2.019,48.236,2.943
	c11.168,0.641,22.333,0.329,33.49-0.461c2.31-0.164,4.676-0.774,7.231,0.161c0.265,3.179-0.583,6.204-1.044,9.66
	c-6.596,0.548-13.1-0.138-20.005,2.33c3.766,0.887,6.87,1.052,9.949,1.311c2.951,0.248,5.911,0.377,9.185,0.577
	c-0.234,2.46-0.428,4.52-0.594,6.261c-0.457,0.448-0.595,0.621-0.768,0.743c-0.168,0.118-0.368,0.248-0.562,0.26
	c-7.499,0.489-14.992,1.176-22.5,1.404c-21.686,0.658-43.378,1.134-65.068,1.656c-0.379,0.009-0.765-0.3-1.377-0.556
	c-0.097-1.088-0.205-2.291-0.321-3.589c-2.429,0.267-1.159,3.177-2.934,4.126c-1.691,0-3.384,0.027-5.075-0.012
	c-0.813-0.019-1.624-0.162-2.688-0.277c-0.503-3.446,0.605-6.793-0.27-10.318c-2.887,3.013-1.883,6.833-3.401,10.193
	c-9.432,0.956-18.773-0.582-28.114-1.164c-9.425-0.587-18.824-1.679-28.21-2.765c-9.364-1.083-18.698-2.434-28.395-3.713
	c-0.592-3.198,0.856-6.036,0.761-8.947c-0.097-2.979-0.021-5.963-0.021-9.837c-2.749,2.867-2.754,5.977-3.615,8.649
	c-0.911,2.827-1.367,5.801-2.095,9.031c-1.806-0.09-3.419-0.171-5.105-0.255c-0.22-0.897-0.533-1.498-0.481-2.065
	c0.653-7.047,1.36-14.089,1.289-21.424c-0.474,0.9-1.196,1.752-1.379,2.707c-1.048,5.48-1.953,10.986-2.942,16.477
	c-0.185,1.028-0.526,2.027-0.833,3.183c-5.775,0.693-11.113-1.135-16.972-1.261v-11.771c-3.601,3.264-1.936,7.824-4.376,11.172
	c-4.46-0.324-8.944-0.496-13.39-0.999c-17.157-1.94-34.302-1.766-51.447,0.068c-16.89,1.807-33.522,5.041-49.96,9.26
	c-16.796,4.311-32.319,11.36-46.374,21.635c-12.848,9.393-25.541,18.981-36.688,30.373c-8.558,8.747-16.675,17.924-24.984,26.914
	c-1.453,1.572-2.884,3.163-4.221,4.63c-6.94,0.635-20.367,0.527-25.164-0.182c-0.774-6.242-0.712-34.753,0.128-39.906
	c4.113-0.315,8.298-0.635,13.533-1.036c-4.963-2.3-9.261-2.234-13.063-2.497c-0.529-0.449-0.734-0.561-0.845-0.734
	c-0.108-0.167-0.163-0.396-0.165-0.598c-0.103-11.38-0.203-22.76-0.275-34.141c-0.004-0.624,0.234-1.249,0.391-2.029
	c3.124-1.838,7.262-0.229,10.854-3.087c-4.004-0.543-7.431-1.008-11.096-1.505c-0.092-1.816-0.164-3.255-0.239-4.744
	c0.724-0.319,1.27-0.752,1.832-0.775c3.648-0.147,7.3-0.199,10.95-0.297c0.729-0.02,1.456-0.1,3.207-0.225
	c-2.902-2.543-5.614-2.033-7.948-2.55c-2.493-0.553-5.085-0.659-7.612-0.957c-0.985-4.747-1.368-43.421-0.488-51.662
	c2.795-0.412,5.675-0.836,8.555-1.261c-0.007-0.209-0.014-0.417-0.021-0.626c-2.661-0.229-5.321-0.458-8.101-0.697
	c-1.745-3.08-0.345-6.219-0.962-9.738c3.359-0.175,6.107-0.238,8.838-0.482c2.753-0.246,5.49-0.67,8.664-1.071
	c-1.649-2.014-3.612-1.472-5.201-1.853c-1.858-0.446-3.829-0.453-5.755-0.581c-1.899-0.125-3.803-0.162-5.372-0.224
	c-1.367-1.383-0.967-2.723-0.985-3.945c-0.015-1.026,0.213-2.055,0.361-3.33c21.277,1.042,42.192,2.922,64.177,4.893
	c-10.331-3.446-21.102-4.996-64.014-9.398c-1.016-5.195-0.26-10.44-0.247-16.071c2.255-0.222,4.11-0.478,5.972-0.567
	c1.928-0.092,3.864-0.02,6.274-0.02c-1.781-1.89-3.677-2.032-5.545-2.208c-1.898-0.179-3.802-0.306-6.089-0.487
	c-0.195-1.176-0.506-2.169-0.503-3.161c0.051-13.317,0.141-26.633,0.241-39.95c0.006-0.831,0.169-1.66,0.268-2.571
	c3.398-1.783,7.181-1.048,11.991-2.408c-4.773-0.695-8.123-1.184-11.809-1.721c-0.1-1.468-0.197-2.884-0.304-4.476
	c4.696-1.6,9.576-0.22,14.08-1.818c-2.667-1.408-2.666-1.44-6.259-1.531c-2.337-0.059-4.676-0.011-6.879-0.011
	c-1.324-4.744-1.54-21.747-0.427-30.06c1.104-0.107,2.317-0.318,3.533-0.326c5.371-0.034,10.749,0.147,16.112-0.063
	c3.513-0.137,6.086,0.942,8.387,3.667c4.572,5.412,9.477,10.54,14.173,15.849c11.141,12.595,23.472,23.905,36.858,34.056
	c7.866,5.965,15.679,12.009,24.284,16.941c9.177,5.259,18.852,9.442,28.992,12.204c26.802,7.298,54.023,12.296,81.926,12.079
	c9.859-0.077,19.727-0.995,29.563-1.858c13.035-1.144,26.042-2.612,39.477-3.983v19.826c2.078-2.895,2.42-5.037,2.657-7.192
	c0.465-4.246,0.875-8.498,1.33-12.978c2.868-1.215,5.799-1.425,9.101-1.423c0.624,1.53,1.243,3.05,1.946,4.775
	c0.533-0.4,1.235-0.651,1.391-1.095c0.485-1.38,0.763-2.833,1.165-4.426c3.713-0.542,7.296-1.13,10.896-1.579
	c35.031-4.367,70.17-6.104,105.462-4.499c15.881,0.722,31.775,1.167,47.659,1.818c4.057,0.166,8.101,0.635,12.149,0.965
	c1.075,2.98,1.104,5.743,1.371,8.843c-1.353,0.091-2.581,0.303-3.792,0.234c-8.792-0.501-17.58-1.079-26.371-1.588
	c-3.624-0.21-7.25-0.253-11.764,0.626c4.993,2.624,9.702,2.398,14.122,3.215c4.634,0.857,9.377,1.125,14.071,1.656
	c4.684,0.53,9.366,1.067,14.517,1.654c0.807,2.485,1.291,5.118,1.173,8.182c-5.831,0.896-11.526-0.561-17.248-0.673
	c-5.797-0.114-11.587-0.517-17.382-0.753c-5.795-0.236-11.592-0.431-17.389-0.629c-5.797-0.198-11.596-0.356-17.393-0.571
	c-5.796-0.215-11.59-0.498-17.386-0.717c-5.581-0.211-11.164-0.38-16.746-0.562c-5.797-0.189-11.593-0.408-17.391-0.544
	c-5.799-0.136-11.599-0.197-17.399-0.272c-5.8-0.075-11.601-0.15-17.401-0.183c-5.563-0.031-11.127-0.007-16.762,0.313
	c2.04,0.359,4.069,0.931,6.122,1.044c18.015,0.986,36.034,1.91,54.054,2.814c19.095,0.958,38.2,1.728,57.283,2.857
	c13.29,0.786,26.551,2.071,39.83,3.064c3.854,0.288,7.725,0.328,11.587,0.502c1.26,0.057,2.517,0.18,4.101,0.296
	c0.278,2.718,0.661,5.245,0.766,7.783c0.13,3.18,0.031,6.368,0.031,9.988c-6.701,1.028-13.556,0.173-21.275,1.922
	c7.636,1.449,14.262,1.572,20.777,1.964c1.21,4.42,1.356,11.096,0.431,19.537c-6.222,1.215-12.627,0.689-18.978,0.911
	c-6.211,0.217-12.425,0.298-19.157,0.45C928.04,615.137,930.692,614.897,933.139,615.034z M1138.335,609.314
	c-1.418,1.255-2.735,2.702-4.699,3.118c-1.291-2.302-0.588-5.253-3.041-7.127c-0.417,3.534-0.817,6.922-1.238,10.489
	c-1.643,1.061-3.224,2.082-5.124,3.308c-2.183-5.987-1.273-12.208-3.476-17.781c-1.649,1.145-0.894,2.842-0.955,4.303
	c-0.073,1.71,0.096,3.431,0.167,5.147c0.073,1.716,0.184,3.43,0.224,5.147c0.039,1.71,0.008,3.422,0.008,5.223
	c-2.718,2.598-6.115,3.972-9.389,5.477c-15.629,7.182-31.79,12.858-48.542,16.803c-5.204,1.226-10.429,2.366-15.985,3.622
	c-0.765-2.759-1.467-5.29-2.169-7.822c-0.279,0.012-0.558,0.025-0.836,0.037c-0.482,2.754-0.964,5.509-1.489,8.509
	c-9.71,2.345-19.387,3.831-29.258,5.334c-0.544-1.34-0.964-2.374-1.655-4.074c-0.896,1.811-1.525,3.083-2.282,4.612
	c-1.941,0.218-4.032,0.452-6.42,0.72c0-1.561-0.126-2.795,0.02-3.996c0.961-7.884,2.109-15.758,0.835-23.717
	c-0.155-0.97-0.465-1.916-0.954-3.879c-1.618,11.422-2.469,21.888-5.21,32.258c-3.082,0.392-5.824,0.816-8.584,1.063
	c-1.678,0.15-3.381,0.028-5.547,0.028c0.185-1.942,0.39-3.757,0.522-5.577c0.155-2.141,0.223-4.288,0.376-6.429
	c0.137-1.926,0.352-3.847,0.507-5.772c0.98-12.195,2.004-24.39,1.667-36.644c-0.068-2.491,0.107-5.051-1.598-8.403
	c-3.2,21.898-4.088,43.013-8.51,63.954c-3.096,0.186-5.818,0.349-8.907,0.534c-0.544-2.437-0.137-4.525,0.321-6.53
	c3.269-14.311,3.917-28.907,4.559-43.474c0.701-15.903-0.719-31.745-2.432-47.544c-0.392-3.612-1.32-7.166-1.976-10.751
	c-0.418-2.287-1.003-4.574-0.458-7.337c3.332,0.003,6.412,0.511,9.483,0.982c4.018,7.232,5.396,15.486,10.261,22.42
	c0.829-3.404,0.847-3.408,0.148-6.716c-0.533-2.516-1.132-5.019-1.682-7.532c-0.494-2.258-0.96-4.522-1.47-6.932
	c2.633-1.273,4.896,0.09,7.397-0.277c1.213,2.377,2.341,4.586,3.713,7.272c1.403-2.169,0.13-4.449,1.017-6.172
	c21.538-0.108,80.994,13.486,105.849,24.209c1.918,5.886,1.101,12.534,3.551,18.677c1.481-0.653,1.003-1.802,1.1-2.658
	c0.12-1.06,0.046-2.143,0.041-3.217c-0.005-1.288-0.021-2.576-0.042-3.864c-0.018-1.073-0.062-2.146-0.076-3.219
	c-0.013-1.006-0.002-2.012-0.002-2.997c5.396-0.233,6.201,3.387,6.83,7.674c0.99-1.507,1.658-2.525,2.343-3.569
	c1.39-0.349,2.403,0.531,3.421,1.204c6.435,4.255,12.888,8.488,19.231,12.877c2.319,1.605,3.953,3.764,4.417,6.802
	C1143.072,601.928,1142.046,606.031,1138.335,609.314z M186.816,487.055c18.461,0.141,36.923,0.219,55.384,0.323
	c6.226,0.035,12.452,0.109,18.677,0.094c2.141-0.005,4.288-0.165,6.417-0.395c0.497-0.053,0.933-0.675,1.455-1.081
	c-0.429-0.362-0.688-0.772-0.98-0.798c-15.841-1.41-31.716-1.783-47.611-1.529c-17.357,0.277-34.708,0.685-52.034,1.736
	c0.023,0.421,0.045,0.842,0.067,1.263C174.4,486.802,180.607,487.007,186.816,487.055z M216.062,497.36
	c11.765,0.532,23.546,0.75,35.322,1.028c1.384,0.033,2.779-0.422,4.17-0.651c-0.001-0.233-0.003-0.467-0.005-0.701
	c-0.743-0.214-1.473-0.553-2.23-0.622c-4.476-0.409-8.952-0.884-13.439-1.099c-16.472-0.792-32.947-1.515-49.424-2.217
	c-8.681-0.37-17.367-0.758-26.074,0.217c6.739,0.877,13.496,1.531,20.267,2.018C195.115,496.083,205.582,496.886,216.062,497.36z
	 M209.148,553.459c-6.841-0.428-13.722-0.218-20.586-0.238c-0.648-0.002-1.817-0.267-1.443,1.522
	c14.857,1.215,29.806,2.448,44.757,3.651c3.635,0.292,7.278,0.486,10.917,0.724c1.098,0.072,2.162,0.065,2.683-1.559
	c-2.294-0.503-4.549-1.232-6.855-1.463C228.807,555.113,218.99,554.075,209.148,553.459z M208.204,563.326
	c-1.759-1.359-2.324-2.101-3.033-2.283c-1.849-0.474-3.756-0.949-5.648-0.985c-8.301-0.158-16.605-0.171-24.908-0.188
	c-0.48-0.001-0.961,0.436-1.461,0.679c0.341,0.606,0.482,1.193,0.723,1.238c9.662,1.785,19.467,1.84,29.235,2.315
	C204.308,564.16,205.525,563.752,208.204,563.326z M151.009,719.337c10.527-0.965,20.415-1.445,30.163-3.253
	c-5.557-0.35-26.056,0.778-28.999,1.501C151.902,717.651,151.747,718.196,151.009,719.337z M179.609,709.947
	c-5.094-0.673-10.301-1.258-15.522-0.083C169.199,711.027,174.334,710.984,179.609,709.947z M624.112,614.795
	c7.985-11.969,7.883-17.704,0.136-29.443c-4.793-7.263-11.005-13.165-18.25-17.952c-4.117-2.72-8.318-5.317-12.539-7.873
	c-21.98-13.307-41.727-29.439-59.948-47.476c-11.065-10.954-20.13-23.409-27.303-37.236c-0.278-0.535-0.774-0.957-1.1-1.349
	c-1.658-0.052-2.157,1.157-1.853,2.074c1.075,3.244,2.205,6.507,3.724,9.559c4.128,8.293,9.336,15.918,15.192,23.08
	c1.692,2.069,2.76,4.23,3.004,6.889c0.3,3.259,0.755,6.504,1.237,10.534c0.949-3.589,0.623-6.587,1.472-10.55
	c3.491,3.549,6.409,6.26,9.394,9.602v31.189c0,0,0.009-0.003,0.01-0.004c0.009-0.001-0.023,0.176-0.023,0.176l0.129-0.215
	c0.419-1.402,1.096-2.783,1.211-4.209c0.553-6.834,0.945-13.681,1.42-20.521c0.067-0.965-0.397-2.192,1.233-2.7
	c0.727,0.633,1.554,1.296,2.319,2.025c15.119,14.405,31.579,27.059,49.422,37.919c2.917,1.776,5.716,3.747,8.466,5.56
	c0.274,4.334,0.528,8.367,0.787,12.465c0.464-0.277,1.047-0.422,1.116-0.697c0.654-2.602,1.22-5.226,1.797-7.783
	c0.339-0.078,0.624-0.239,0.739-0.157c6.629,4.725,11.211,11.104,14.638,18.368c1.369,2.901,0.992,5.802-0.355,8.688
	c-2.018,4.321-4.825,8.089-7.889,11.688c-0.508,0.597-0.999,1.486-2.535,0.726c-0.105-1.797-0.224-3.862-0.349-5.927
	c-0.124-2.047-0.183-4.111-1.471-6.612c-1.421,6.259-0.307,12.052-1.479,17.637c-2.031,1.132-3.186,3.62-6.3,3.202
	c-0.115-2.202-0.239-4.32-0.332-6.44c-0.094-2.143-0.159-4.287-0.232-6.431s-0.127-4.288-0.209-6.432
	c-0.082-2.143-0.046-4.305-0.328-6.422c-0.246-1.846,0.617-3.937-1.169-5.811c-1.597,5.926-1.091,11.748-1.329,17.494
	c-0.248,5.97-0.217,11.952-0.311,18.064c-4.453,2.866-8.727,5.702-13.087,8.399c-4.242,2.624-7.904,6.216-12.924,8.219
	c0.232-4.91,0.441-9.339,0.65-13.767c-3.017,5.45-2.3,11.671-4.26,17.306c-2.842,2.311-5.649,4.637-8.515,6.887
	c-0.565,0.444-1.362,0.593-2.107,0.901c-0.221-0.828-0.416-1.214-0.416-1.6c0.015-22.934,0.045-45.868,0.075-68.801
	c0.132-0.271,0.264-0.542,0.396-0.812c-0.136,0.255-0.271,0.51-0.402,0.773c0.005,0.008-0.041,0.134-0.041,0.134
	c-0.419,0.935-1.122,1.844-1.21,2.809c-0.582,6.377-1.28,12.759-1.475,19.153c-0.493,16.224-0.736,32.456-1.094,48.684
	c-0.033,1.481-0.183,2.961-0.269,4.304c-5.124,4.833-10.085,9.533-15.087,14.188c-0.409,0.38-1.1,0.457-1.659,0.674
	c-0.004,0.005-0.008,0.009-0.012,0.014c-1.172-1.211-0.617-2.697-0.548-4.095c0.139-2.787,0.384-5.57,0.447-8.358
	c0.057-2.523-0.071-5.049-0.117-7.574c-1.806,7.182-2.862,14.368-3.636,21.584c-0.268,2.496-1.092,4.446-2.779,6.274
	c-2.617,2.837-5.007,5.884-7.526,8.813c-0.621,0.722-1.004,1.979-2.432,1.399c0-1.934-0.099-3.867,0.015-5.787
	c1.031-17.358,2.091-34.714,3.158-52.07c0.606-9.86,1.102-19.72,0.077-29.617c-0.859,5.89-1.567,11.799-2.079,17.724
	c-1.106,12.831-2.185,25.665-3.137,38.508c-0.887,11.985-1.656,23.979-2.329,35.978c-0.125,2.221-0.625,4.095-1.756,6.019
	c-2.497,4.248-4.802,8.615-7.024,13.014c-0.86,1.701-1.463,3.588-1.822,5.459c-0.148,0.771,0.653,1.724,1.227,3.075
	c0.86-1.186,1.436-1.812,1.821-2.539c7.184-13.56,16.07-25.88,26.973-36.693c18.361-18.208,38.289-34.447,60.458-47.86
	c4.405-2.665,8.765-5.415,13.048-8.272C613.715,627.358,619.529,621.666,624.112,614.795z M534.176,677.698
	c-0.041-0.187-0.082-0.374-0.122-0.561c0.215-0.016,0.43-0.032,0.646-0.047C534.525,677.292,534.351,677.495,534.176,677.698z
	 M744.802,600.062c-9.426,0.094-18.854,0.327-28.279,0.268c-13.93-0.087-27.857-0.403-41.787-0.568
	c-4.713-0.056-9.438-0.119-14.141,0.131c-4.054,0.216-8.103,0.761-12.117,1.392c-1.408,0.221-2.959,0.91-2.651,2.968
	c1.435,1.681,3.448,1.487,5.346,1.556c13.278,0.485,26.556,0.949,39.834,1.404c20.611,0.706,41.11-1.281,61.624-2.722
	c5.317-0.374,10.579-1.561,15.854-2.444c0.439-0.074,0.789-0.682,1.815-1.625c-1.934-0.248-3.11-0.531-4.287-0.528
	C758.943,599.913,751.873,599.992,744.802,600.062z M686.344,637.032c-17.561,0.906-35.137,1.603-52.672,2.873
	c-6.578,0.477-13.092,2.149-19.566,3.587c-2.219,0.493-4.259,1.874-6.303,2.991c-0.361,0.197-0.599,1.193-0.424,1.634
	c0.172,0.433,1,0.954,1.439,0.875c2.52-0.458,4.995-1.165,7.513-1.637c17.726-3.326,35.662-4.902,53.603-6.461
	c6.981-0.607,13.999-1.061,20.897-3.871C689.334,637.022,687.835,636.955,686.344,637.032z M746.602,591.043
	c-1.44-0.229-2.875-0.594-4.323-0.667c-15.41-0.774-30.822-1.512-46.235-2.219c-1.273-0.058-2.59,0.057-3.829,0.34
	c-0.823,0.188-1.545,0.821-2.757,1.506C697.601,591.731,730.083,592.538,746.602,591.043z M526.635,708.561
	c6.142-5.358,12.196-10.82,18.448-16.047c6.424-5.37,13.042-10.507,19.57-15.754c0.836-0.672,1.663-1.361,2.44-2.099
	c0.568-0.538,1.472-1.055,0.56-2.03C558.995,675.873,536.606,695.158,526.635,708.561z M679.729,625.854
	c-6.53-2.067-16.818-2.142-32.064-0.522c-1.897,0.202-3.899,0.122-5.915,2.815c2.364,0.267,4.015,0.705,5.629,0.595
	C657.882,628.022,668.462,627.998,679.729,625.854z M559.946,523.34c-0.395-0.345-0.796-0.682-1.183-1.035
	c-10.564-9.618-21.126-19.238-31.691-28.856c-0.157-0.143-0.348-0.363-0.51-0.352c-0.139,0.01-0.259,0.299-0.387,0.464
	C530.229,500.792,548.602,517.289,559.946,523.34z M629.112,562.542c0.461,0.095,1.046-0.41,2.185-0.905
	c-1.274-0.792-2.038-1.402-2.902-1.782c-3.501-1.539-7.081-2.906-10.543-4.526c-4.429-2.072-8.758-4.355-13.163-6.478
	c-0.745-0.36-1.656-0.378-3.48-0.762c6.405,4.735,17.084,10.929,22.398,12.976C625.373,561.746,627.253,562.16,629.112,562.542z
	 M890.08,580.776c-2.252,3.385-2.535,6.578-1.243,18.866c2.506-5.226,1.91-10.777,2.341-16.182
	C891.257,582.469,891.346,581.301,890.08,580.776z M880.507,579.935c-0.511,0.561-1.467,1.127-1.461,1.683
	c0.049,4.857,0.234,9.713,0.481,14.565c0.037,0.734,0.602,1.44,0.923,2.159c0.365-0.044,0.729-0.088,1.094-0.132
	c0.14-3.577,0.308-7.154,0.407-10.733c0.053-1.898,0.103-3.812-0.093-5.693C881.79,581.128,880.979,580.549,880.507,579.935z
	 M618.697,565.488c3.835,2.937,7.708,5.435,12.149,6.923c0.446,0.149,1.088-0.289,1.974-0.556c-1.557-2.9-4.509-3.258-6.796-4.454
	C621.762,565.171,621.702,565.284,618.697,565.488z M1036.277,572.695c0.018-0.001,0.036-0.002,0.054-0.003
	c0.032-0.052,0.07-0.091,0.101-0.147L1036.277,572.695z M1074.432,601.546c-0.525-3.975-1.627-7.997-3.213-11.686
	c-4.749-11.041-13.293-17.003-25.37-17.548c-3.16-0.143-6.344,0.237-9.518,0.381c-0.912,1.475-2.353,1.381-3.815,1.226
	c-0.274,1.97-2.236,2.095-3.444,2.997c-9.524,7.111-14.112,16.261-12.458,28.351c1.636,11.96,12.227,22.793,25.586,24.214
	c16.139,1.716,27.488-8.889,31.004-19.776C1074.046,607.102,1074.779,604.175,1074.432,601.546z M1069.165,597.729
	c-1.595,4.646-1.707,9.664-4.096,14.147c-4.686,8.791-16.854,15.119-28.81,10.696c-10.391-3.844-16.929-15.338-14.977-26.346
	c2.171-12.244,12.121-20.373,24.559-20.065c11.341,0.28,20.965,8.521,22.998,19.691
	C1068.953,596.483,1069.345,597.203,1069.165,597.729z M1036.432,572.545c-0.026-0.01-0.047-0.009-0.074-0.019
	c-0.027,0.057-0.052,0.117-0.082,0.169C1036.277,572.695,1036.432,572.545,1036.432,572.545z M1036.358,572.526
	c0.205-0.424,0.359-0.93,0.696-1.133c1.207-0.725,2.502-1.301,3.745-1.926c-0.261-0.582-0.294-0.851-0.441-0.948
	c-0.5-0.33-1.056-0.882-1.562-0.852c-9.994,0.586-18.607,4.091-24.986,12.12c-0.288,0.362-0.136,1.072-0.255,2.3
	c1.367-0.717,2.22-1.182,3.088-1.618c4.552-2.281,9.103-4.561,13.663-6.824c0.734-0.364,1.507-0.624,2.171,0.138
	C1033.349,572.253,1034.574,571.848,1036.358,572.526z M1032.478,573.783c-0.027,0.048-0.062,0.072-0.088,0.122
	c0.042,0.005,0.085,0.008,0.126,0.013c0.005-0.031,0.017-0.054,0.021-0.086C1032.518,573.808,1032.497,573.805,1032.478,573.783z
	 M1080.614,619.847c0.964-1.277,1.992-2.699,1.356-4.71c-0.815,0.129-1.643,0.005-1.948,0.347
	c-3.633,4.081-8.515,6.931-11.335,11.761C1073.416,625.694,1077.681,623.734,1080.614,619.847z M1027.67,561.191
	c-6.267,3.136-7.779,4.458-8.992,7.586C1025.135,565.824,1026.354,564.865,1027.67,561.191z M1079.312,628.585
	c4.016-1.466,7.378-2.592,9.505-6.353C1084.27,622.701,1083.164,623.435,1079.312,628.585z M461.585,594.556
	c-2.8,0.055-5.229,2.496-5.289,5.314c-0.065,3.074,2.639,5.629,5.755,5.438c2.925-0.179,4.994-2.544,4.88-5.575
	C466.819,596.828,464.416,594.5,461.585,594.556z"/>
</svg>
